{"title":"Reservoir Dogs.[x264](AC3)(5.1 ch)Nordic_sub.mkv","uid":5211243,"size":1485788652,"categoryP":"video","categoryS":"movies","magnet":"?xt=urn:btih:a276a6a9a92a15fe21e2a424e1cbd85bab00c75f&amp;dn=Reservoir+Dogs.%5Bx264%5D%28AC3%29%285.1+ch%29Nordic_sub.mkv&amp;tr=udp%3A%2F%2Ftracker.openbittorrent.com%3A80&amp;tr=udp%3A%2F%2Fopen.demonii.com%3A1337&amp;tr=udp%3A%2F%2Ftracker.coppersurfer.tk%3A6969&amp;tr=udp%3A%2F%2Fexodus.desync.com%3A6969","seeders":0,"leechers":1,"uploader":"Zen_Bud","files":-1,"time":1260606711,"description":"General\nComplete name                    : Reservoir Dogs.mkv\nFormat                           : Matroska\nFile size                        : 1.38 GiB\nDuration                         : 1h 35mn\nOverall bit rate                 : 2 080 Kbps\n\n\nVideo\nID                               : 1\nFormat                           : AVC\n\nCodec ID                         : V_MPEG4/ISO/AVC\nDuration                         : 1h 35mn\nBit rate                         : 1 586 Kbps\nNominal bit rate                 : 1 603 Kbps\nWidth                            : 720 pixels\nHeight                           : 432 pixels\nDisplay aspect ratio             : 2.35\nFrame rate                       : 25.000 fps\nResolution                       : 24 bits\nColorimetry                      : 4:2:0\nScan type                        : Progressive\nBits/(Pixel*Frame)               : 0.204\nStream size                      : 1.06 GiB (76%)\nWriting library                  : x264 core 79\n\n\nAudio\nID                               : 2\nFormat                           : AC-3\nFormat/Info                      : Audio Coding 3\nCodec ID                         : A_AC3\nDuration                         : 1h 35mn\nBit rate mode                    : Constant\nBit rate                         : 448 Kbps\nChannel(s)                       : 6 channels\nChannel positions                : Front: L C R, Surround: L R, LFE\nSampling rate                    : 48.0 KHz\nStream size                      : 305 MiB (22%)\n\nText #1\nLanguage                         : Danish\n\nText #2\nLanguage                         : Finnish\n\nText #3\nLanguage                         : Norwegian\n\nText #4\nLanguage                         : Swedish","torrent":{"xt":"urn:btih:a276a6a9a92a15fe21e2a424e1cbd85bab00c75f","amp;dn":"Reservoir+Dogs.%5Bx264%5D%28AC3%29%285.1+ch%29Nordic_sub.mkv","amp;tr":["udp%3A%2F%2Ftracker.openbittorrent.com%3A80","udp%3A%2F%2Fopen.demonii.com%3A1337","udp%3A%2F%2Ftracker.coppersurfer.tk%3A6969","udp%3A%2F%2Fexodus.desync.com%3A6969"],"infoHash":"a276a6a9a92a15fe21e2a424e1cbd85bab00c75f","infoHashBuffer":{"type":"Buffer","data":[162,118,166,169,169,42,21,254,33,226,164,36,225,203,216,91,171,0,199,95]},"announce":[],"urlList":[]}}